HIERARCHY
ROOT Hips
{
	OFFSET 0.000000 0.000000 0.000000
	CHANNELS 6 Xposition Yposition Zposition Zrotation Yrotation Xrotation 
	JOINT LHipJoint
	{
		OFFSET 0.000000 0.000000 0.000000
		CHANNELS 3 Zrotation Yrotation Xrotation
		JOINT LeftUpLeg
		{
			OFFSET 1.363060 -1.794630 0.839290
			CHANNELS 3 Zrotation Yrotation Xrotation
			JOINT LeftLeg
			{
				OFFSET 2.448110 -6.726130 0.000000
				CHANNELS 3 Zrotation Yrotation Xrotation
				JOINT LeftFoot
				{
					OFFSET 2.562200 -7.039590 0.000000
					CHANNELS 3 Zrotation Yrotation Xrotation
					JOINT LeftToeBase
					{
						OFFSET 0.157640 -0.433110 2.322550
						CHANNELS 3 Zrotation Yrotation Xrotation
						End Site
						{
							OFFSET 0.000000 0.000000 0.000000
						}
					}
				}
			}
		}
	}
	JOINT RHipJoint
	{
		OFFSET 0.000000 0.000000 0.000000
		CHANNELS 3 Zrotation Yrotation Xrotation
		JOINT RightUpLeg
		{
			OFFSET -1.305520 -1.794630 0.839290
			CHANNELS 3 Zrotation Yrotation Xrotation
			JOINT RightLeg
			{
				OFFSET -2.542530 -6.985550 0.000000
				CHANNELS 3 Zrotation Yrotation Xrotation
				JOINT RightFoot
				{
					OFFSET -2.568260 -7.056230 0.000000
					CHANNELS 3 Zrotation Yrotation Xrotation
					JOINT RightToeBase
					{
						OFFSET -0.164730 -0.452590 2.363150
						CHANNELS 3 Zrotation Yrotation Xrotation
						End Site
						{
							OFFSET 0.000000 0.000000 0.000000
						}
					}
				}
			}
		}
	}
	JOINT LowerBack
	{
		OFFSET 0.000000 0.000000 0.000000
		CHANNELS 3 Zrotation Yrotation Xrotation
		JOINT Spine
		{
			OFFSET 0.028270 2.035590 -0.193380
			CHANNELS 3 Zrotation Yrotation Xrotation
			JOINT Spine1
			{
				OFFSET 0.056720 2.048850 -0.042750
				CHANNELS 3 Zrotation Yrotation Xrotation
				JOINT Neck
				{
					OFFSET 0.000000 0.000000 0.000000
					CHANNELS 3 Zrotation Yrotation Xrotation
					JOINT Neck1
					{
						OFFSET -0.054170 1.746240 0.172020
						CHANNELS 3 Zrotation Yrotation Xrotation
						JOINT Head
						{
							OFFSET 0.104070 1.761360 -0.123970
							CHANNELS 3 Zrotation Yrotation Xrotation
							End Site
							{
								OFFSET 0.000000 0.000000 0.000000
							}
						}
					}
				}
				JOINT LeftShoulder
				{
					OFFSET 0.000000 0.000000 0.000000
					CHANNELS 3 Zrotation Yrotation Xrotation
					JOINT LeftArm
					{
						OFFSET 3.362410 1.200890 -0.311210
						CHANNELS 3 Zrotation Yrotation Xrotation
						JOINT LeftForeArm
						{
							OFFSET 4.983000 -0.000000 -0.000000
							CHANNELS 3 Zrotation Yrotation Xrotation
							JOINT LeftHand
							{
								OFFSET 3.483560 -0.000000 -0.000000
								CHANNELS 3 Zrotation Yrotation Xrotation
								JOINT LeftFingerBase
								{
									OFFSET 0.000000 0.000000 0.000000
									CHANNELS 3 Zrotation Yrotation Xrotation
									JOINT LeftHandIndex1
									{
										OFFSET 0.715260 -0.000000 -0.000000
										CHANNELS 3 Zrotation Yrotation Xrotation
										End Site
										{
											OFFSET 0.000000 0.000000 0.000000
										}
									}
								}
								JOINT LThumb
								{
									OFFSET 0.000000 0.000000 0.000000
									CHANNELS 3 Zrotation Yrotation Xrotation
									End Site
									{
										OFFSET 0.000000 0.000000 0.000000
									}
								}
							}
						}
					}
				}
				JOINT RightShoulder
				{
					OFFSET 0.000000 0.000000 0.000000
					CHANNELS 3 Zrotation Yrotation Xrotation
					JOINT RightArm
					{
						OFFSET -3.136600 1.374050 -0.404650
						CHANNELS 3 Zrotation Yrotation Xrotation
						JOINT RightForeArm
						{
							OFFSET -5.241900 -0.000000 -0.000000
							CHANNELS 3 Zrotation Yrotation Xrotation
							JOINT RightHand
							{
								OFFSET -3.444170 -0.000000 -0.000000
								CHANNELS 3 Zrotation Yrotation Xrotation
								JOINT RightFingerBase
								{
									OFFSET 0.000000 0.000000 0.000000
									CHANNELS 3 Zrotation Yrotation Xrotation
									JOINT RightHandIndex1
									{
										OFFSET -0.622530 -0.000000 -0.000000
										CHANNELS 3 Zrotation Yrotation Xrotation
										End Site
										{
											OFFSET 0.000000 0.000000 0.000000
										}
									}
								}
								JOINT RThumb
								{
									OFFSET 0.000000 0.000000 0.000000
									CHANNELS 3 Zrotation Yrotation Xrotation
									End Site
									{
										OFFSET 0.000000 0.000000 0.000000
									}
								}
							}
						}
					}
				}
			}
		}
	}
}
MOTION
Frames: 6
Frame Time: 0.008333
18.707881 16.124930 2.204893 75.422061 -88.115828 -16.046559 -7.997574 -0.767671 4.371504 -4.306852 -13.803680 -77.747187 -1.946634 -0.113880 29.086483 4.741878 14.634868 -17.309814 -1.171100 -0.000000 -38.434600 8.328012 0.981946 5.135995 1.107245 8.760007 -78.823397 2.398785 -1.154485 30.010967 -3.941079 -9.438809 -16.733376 0.263000 -0.000001 -57.133300 2.343017 -1.614441 -4.580686 -0.356451 -1.979761 -4.054077 -5.831675 -2.197378 0.719732 8.364153 -7.226963 -8.832002 -3.029572 -0.193682 -0.878005 0.000000 0.000000 0.000000 -1.971628 1.599489 3.475506 -75.001516 2.306720 20.807391 -2.054142 -29.699397 -0.000377 0.629584 -0.386514 -0.002603 -0.041216 0.131888 -0.000000 0.000000 0.000000 0.000000 0.000000 0.000000 0.000000 15.826465 -5.527774 3.391878 75.755241 -0.669071 11.953383 2.621950 26.916987 0.016116 7.125453 1.534523 0.103812 -0.007409 -0.126590 0.000000 0.000000 0.000000 0.000000 0.000000 0.000000 0.000000 
18.695140 15.998991 2.207206 79.718862 -87.856970 -19.161190 -7.945184 -0.807610 4.524626 -3.895769 -14.609685 -80.526703 -1.810339 0.172861 31.985431 4.971406 14.917964 -18.644287 -1.556600 0.000001 -37.505600 8.335402 1.068037 5.307513 0.160150 8.942178 -81.940550 2.157802 -1.611888 33.502743 -4.137407 -9.652144 -18.129791 0.555300 0.000000 -56.420400 2.129506 -1.661808 -4.819675 -0.408744 -2.025165 -4.125426 -5.794957 -2.247740 0.662356 8.362563 -7.062635 -8.862290 -3.024179 -0.191739 -0.907423 0.000000 0.000000 0.000000 -1.835183 1.323418 3.540908 -74.584265 1.591968 21.566885 -2.066355 -30.087907 -0.000151 0.516079 -0.366796 -0.002083 -0.042222 0.139307 -0.000000 0.000000 0.000000 0.000000 0.000000 0.000000 0.000000 15.936625 -5.341519 3.479817 75.473845 -0.309531 12.431841 2.609775 26.820246 0.017117 7.530445 1.443318 0.103910 -0.013715 -0.128608 0.000000 0.000000 0.000000 0.000000 0.000000 0.000000 0.000000 
18.682281 15.863675 2.209248 83.446229 -87.581708 -21.767044 -7.896006 -0.848230 4.663982 -3.497531 -15.390172 -83.299887 -1.659130 0.479502 35.003681 5.195731 15.205127 -19.984095 -1.961000 -0.000000 -36.540200 8.349075 1.188661 5.461842 -0.821752 9.047944 -85.022251 1.889579 -2.073900 37.111679 -4.328655 -9.894861 -19.524643 0.864300 0.000000 -55.690900 1.906690 -1.715667 -5.039751 -0.464750 -2.075500 -4.194840 -5.760321 -2.303010 0.593457 8.351607 -6.831160 -8.868854 -3.025553 -0.190681 -0.929469 0.000000 0.000000 0.000000 -1.722878 0.997204 3.609070 -74.117446 0.939068 22.277293 -2.082078 -30.525179 0.000200 0.365744 -0.351137 -0.001363 -0.042859 0.146565 -0.000000 0.000000 0.000000 0.000000 0.000000 0.000000 0.000000 16.055320 -5.091600 3.566040 75.169025 -0.033511 12.842083 2.589933 26.689683 0.017864 7.786446 1.349597 0.101308 -0.018618 -0.130637 0.000000 0.000000 0.000000 0.000000 0.000000 0.000000 0.000000 
18.669251 15.719627 2.211745 86.285413 -87.332406 -23.557036 -7.852115 -0.899591 4.777329 -3.090174 -16.096275 -86.053309 -1.490229 0.807615 38.148928 5.408149 15.487503 -21.317334 -2.380000 0.000000 -35.603300 8.361622 1.335881 5.597130 -1.787401 9.122158 -88.004254 1.601655 -2.523663 40.751898 -4.517011 -10.184078 -20.900878 1.189100 -0.000000 -54.908800 1.712558 -1.762287 -5.224786 -0.515471 -2.118717 -4.253546 -5.729159 -2.350719 0.529370 8.338845 -6.609978 -8.876112 -3.031303 -0.190000 -0.951468 0.000000 0.000000 0.000000 -1.648258 0.694636 3.675095 -73.592542 0.247938 23.034094 -2.101644 -30.958790 0.000643 0.196747 -0.335508 -0.000542 -0.043457 0.153494 -0.000000 0.000000 0.000000 0.000000 0.000000 0.000000 0.000000 16.193580 -4.851299 3.648157 74.812735 0.231606 13.288878 2.562803 26.531002 0.018216 7.850631 1.218046 0.093207 -0.021450 -0.132291 0.000000 0.000000 0.000000 0.000000 0.000000 0.000000 0.000000 
18.655897 15.567076 2.214700 88.354290 -87.102793 -24.654319 -7.811977 -0.965474 4.865213 -2.675223 -16.738430 -88.766596 -1.301950 1.150827 41.399009 5.608675 15.780855 -22.625711 -2.809000 0.000000 -34.728600 8.373053 1.506874 5.712404 -2.725700 9.157261 -90.875880 1.297522 -2.960156 44.414135 -4.698680 -10.512671 -22.251268 1.529299 0.000000 -54.099300 1.550851 -1.805260 -5.374836 -0.559775 -2.158887 -4.302495 -5.703596 -2.395099 0.466500 8.323565 -6.384224 -8.876515 -3.043512 -0.189971 -0.971048 0.000000 0.000000 0.000000 -1.624485 0.396775 3.739915 -72.996328 -0.455725 23.827628 -2.123630 -31.411263 0.001113 0.032393 -0.317816 0.000179 -0.044213 0.160085 -0.000000 0.000000 0.000000 0.000000 0.000000 0.000000 0.000000 16.355439 -4.609266 3.724821 74.405014 0.470051 13.766073 2.526652 26.360334 0.018119 7.706884 1.053688 0.080506 -0.022025 -0.133643 0.000000 0.000000 0.000000 0.000000 0.000000 0.000000 0.000000 
18.642226 15.406563 2.218206 89.700215 -86.895588 -25.113346 -7.775072 -1.050146 4.926622 -2.251062 -17.315014 -91.418141 -1.093557 1.503704 44.732952 5.796000 16.093417 -23.895879 -3.245101 0.000000 -33.949800 8.381856 1.696381 5.806413 -3.616321 9.158365 -93.616769 0.982044 -3.380488 48.073218 -4.871165 -10.875565 -23.569193 1.884300 0.000000 -53.277300 1.428995 -1.843720 -5.487621 -0.596193 -2.195759 -4.342238 -5.686593 -2.436057 0.401182 8.306723 -6.144799 -8.863986 -3.064277 -0.190848 -0.986326 0.000000 0.000000 0.000000 -1.664482 0.078101 3.803910 -72.317561 -1.147243 24.641351 -2.146060 -31.902559 0.001543 -0.107162 -0.292214 0.000701 -0.045270 0.166287 -0.000000 0.000000 0.000000 0.000000 0.000000 0.000000 0.000000 16.547560 -4.357392 3.796941 73.947707 0.673087 14.246237 2.482243 26.193186 0.017577 7.379603 0.837409 0.063204 -0.020545 -0.134514 0.000000 0.000000 0.000000 0.000000 0.000000 0.000000 0.000000 
